# xmcd CD database file
#
# Track frame offsets:
#	150
#	17191
#	32218
#	48353
#	61725
#	77132
#	86473
#	98697
#	110888
#	120923
#	133773
#	150654
#	172133
#	184154
#	198670
#	210080
#	232579
#	246617
#	262545
#	264583
#	273957
#	283751
#	301131
#	314871
#	332807
#
# Disc length: 4619 seconds
#
# Revision: 0
# Processed by: cddbd v1.5.1PL0 Copyright (c) Steve Scherf et al.
# Submitted via: CDex 1.51
#
DISCID=5e120919
DTITLE=Taiconderoga - Taiconderoga Sucks!
DYEAR=2005
DGENRE=Jazz
TTITLE0=Terry Winter - Thanks!
TTITLE1=Paulo - Dia a Dia
TTITLE2=Augusto Martelli - Summertime
TTITLE3=Maria Sandra - Patropi
TTITLE4=Hearts Of Soul - Sing A Simple Song
TTITLE5=Bohanna - Nighttime Lady
TTITLE6=Johnny Thunder - Verbal Expressions Of TV
TTITLE7=Davy Jones and Voodoo Funk Machine - Voodoo
TTITLE8=Somebody - Think What You Like
TTITLE9=Rock McCabe - Sunny Day's Coming
TTITLE10=Greg Segura  /Safari Pop
TTITLE11=Spinach - Action Man 
TTITLE12=Pekenikes - Tabasco
TTITLE13=Charlie Daniels - Funky Junky
TTITLE14=Vainica Doble - Las 12 Caras De Eva
TTITLE15=Cerebrum - Eagle Death
TTITLE16=Fat Matress - Magic Forest
TTITLE17=La Mosca - Free
TTITLE18=Skit
TTITLE19=Vivre! - Nous Changerons
TTITLE20=Waldo De Los Rois - Credo
TTITLE21=Pekenikes - Tren Transoceanico A Bucaramanga
TTITLE22=Rune Gustafsson - Son Of A Preacher Man
TTITLE23=Tony Ronald - Superstar
TTITLE24=Aguaviva - Cancion Del Nino Que Queria Ir A La Luna
EXTD=YEAR: 2005
EXTT0=
EXTT1=
EXTT2=
EXTT3=
EXTT4=
EXTT5=
EXTT6=
EXTT7=
EXTT8=
EXTT9=
EXTT10=
EXTT11=
EXTT12=
EXTT13=
EXTT14=
EXTT15=
EXTT16=
EXTT17=
EXTT18=
EXTT19=
EXTT20=
EXTT21=
EXTT22=
EXTT23=
EXTT24=
PLAYORDER=
